<svg width="331" height="285" viewBox="0 0 331 285" fill="none" xmlns="http://www.w3.org/2000/svg">
<path d="M150.944 5.5793C158.356 -1.84857 170.386 -1.86139 177.814 5.55065L182.869 10.5945C190.297 18.0065 190.31 30.0367 182.898 37.4645L37.504 183.169C30.0919 190.596 18.0618 190.609 10.6339 183.197L5.5793 178.153C-1.84857 170.741 -1.86139 158.711 5.55065 151.283L150.944 5.5793Z" fill="#FFE7EB"/>
<path d="M146.591 37.7639C139.134 30.3813 139.073 18.3514 146.456 10.8942L151.48 5.81967C158.862 -1.63747 170.892 -1.69789 178.349 5.68471L324.628 150.501C332.085 157.883 332.145 169.913 324.763 177.37L319.739 182.445C312.356 189.902 300.326 189.962 292.869 182.58L146.591 37.7639Z" fill="#FFE7EB"/>
<path d="M143.13 49.7657H188.13V284.766H143.13V49.7657Z" fill="#FFE7EB"/>
</svg>
