<svg width="500" height="609" viewBox="0 0 500 609" fill="none" xmlns="http://www.w3.org/2000/svg">
<rect x="9.15527e-05" y="84.9767" width="35.407" height="500" rx="17.7035" transform="rotate(-90 9.15527e-05 84.9767)" fill="#FF7B92"/>
<rect x="195" y="35.4069" width="35.407" height="110" rx="17.7035" transform="rotate(-90 195 35.4069)" fill="#FF7B92"/>
<path d="M30 145.336C30 123.244 47.9086 105.336 70 105.336H435C454.33 105.336 470 121.006 470 140.336V519C470 568.706 429.706 609 380 609H120C70.2944 609 30 568.706 30 519V145.336Z" fill="#FF7B92"/>
<rect x="141" y="213.327" width="70" height="223.064" rx="35" fill="#FFACBB"/>
<rect x="280" y="213.327" width="70" height="223.064" rx="35" fill="#FFACBB"/>
</svg>
