<svg width="581" height="540" viewBox="0 0 581 540" fill="none" xmlns="http://www.w3.org/2000/svg">
<path d="M581 270C581 419.117 450.939 540 290.5 540C130.061 540 0 419.117 0 270C0 120.883 130.061 0 290.5 0C450.939 0 581 120.883 581 270Z" fill="#FFC0CB"/>
<path d="M390.161 174.752C390.161 229.794 345.579 274.375 290.538 274.375C235.496 274.375 190.914 229.794 190.914 174.752C190.914 119.71 235.496 75.1289 290.538 75.1289C345.579 75.1289 390.161 119.71 390.161 174.752Z" fill="#FF7B92"/>
<path d="M290.538 296.514C224.039 296.514 91.2913 330.106 91.2913 385.068V451.484H489.784V385.068C489.784 330.106 357.036 296.514 290.538 296.514Z" fill="#FF7B92"/>
<path d="M89.7913 451.484V452.984H91.2913H489.784H491.284V451.484V385.068C491.284 370.675 482.591 357.885 468.945 346.877C455.283 335.855 436.443 326.435 415.616 318.773C373.961 303.447 323.975 295.014 290.538 295.014C257.101 295.014 207.114 303.447 165.46 318.773C144.633 326.435 125.793 335.855 112.13 346.877C98.4849 357.885 89.7913 370.675 89.7913 385.068V451.484ZM579.5 270C579.5 418.187 450.216 538.5 290.5 538.5C130.784 538.5 1.5 418.187 1.5 270C1.5 121.813 130.784 1.5 290.5 1.5C450.216 1.5 579.5 121.813 579.5 270ZM388.661 174.752C388.661 228.966 344.751 272.875 290.538 272.875C236.324 272.875 192.414 228.966 192.414 174.752C192.414 120.539 236.324 76.6289 290.538 76.6289C344.751 76.6289 388.661 120.539 388.661 174.752ZM290.538 275.875C346.408 275.875 391.661 230.622 391.661 174.752C391.661 118.882 346.408 73.6289 290.538 73.6289C234.667 73.6289 189.414 118.882 189.414 174.752C189.414 230.622 234.667 275.875 290.538 275.875ZM92.7913 385.068C92.7913 371.98 100.691 359.96 114.014 349.212C127.32 338.477 145.823 329.194 166.495 321.588C207.84 306.377 257.476 298.014 290.538 298.014C323.599 298.014 373.236 306.377 414.58 321.588C435.253 329.194 453.755 338.477 467.061 349.212C480.384 359.96 488.284 371.98 488.284 385.068V449.984H92.7913V385.068Z" stroke="#FFC0CB" stroke-width="3"/>
</svg>
